<mxfile host="app.diagrams.net" agent="Mozilla/5.0 (Windows NT 10.0; Win64; x64) AppleWebKit/537.36 (KHTML, like Gecko) Chrome/131.0.0.0 Safari/537.36" version="26.0.6">
  <diagram name="Page-1" id="50KCAq99XJreJU4lUwnG">
    <mxGraphModel dx="1434" dy="780" grid="1" gridSize="10" guides="1" tooltips="1" connect="1" arrows="1" fold="1" page="1" pageScale="1" pageWidth="850" pageHeight="1100" math="0" shadow="0">
      <root>
        <mxCell id="0" />
        <mxCell id="1" parent="0" />
        <mxCell id="4yn7_-6FRRdtRMWmyEBK-1" value="&lt;h1&gt;Display&lt;/h1&gt;" style="rounded=0;whiteSpace=wrap;html=1;" vertex="1" parent="1">
          <mxGeometry x="370" y="70" width="150" height="60" as="geometry" />
        </mxCell>
        <mxCell id="4yn7_-6FRRdtRMWmyEBK-8" style="edgeStyle=orthogonalEdgeStyle;rounded=0;orthogonalLoop=1;jettySize=auto;html=1;entryX=0.25;entryY=1;entryDx=0;entryDy=0;" edge="1" parent="1" source="4yn7_-6FRRdtRMWmyEBK-2" target="4yn7_-6FRRdtRMWmyEBK-1">
          <mxGeometry relative="1" as="geometry" />
        </mxCell>
        <mxCell id="4yn7_-6FRRdtRMWmyEBK-2" value="&lt;h3&gt;MQ-7&lt;/h3&gt;" style="ellipse;whiteSpace=wrap;html=1;" vertex="1" parent="1">
          <mxGeometry x="320" y="360" width="120" height="80" as="geometry" />
        </mxCell>
        <mxCell id="4yn7_-6FRRdtRMWmyEBK-5" value="&lt;h3&gt;PM2.5&lt;/h3&gt;" style="ellipse;whiteSpace=wrap;html=1;" vertex="1" parent="1">
          <mxGeometry x="190" y="360" width="120" height="80" as="geometry" />
        </mxCell>
        <mxCell id="4yn7_-6FRRdtRMWmyEBK-11" style="edgeStyle=orthogonalEdgeStyle;rounded=0;orthogonalLoop=1;jettySize=auto;html=1;entryX=0.5;entryY=1;entryDx=0;entryDy=0;" edge="1" parent="1" source="4yn7_-6FRRdtRMWmyEBK-6" target="4yn7_-6FRRdtRMWmyEBK-1">
          <mxGeometry relative="1" as="geometry" />
        </mxCell>
        <mxCell id="4yn7_-6FRRdtRMWmyEBK-6" value="&lt;h3&gt;Humidity-Temperture&lt;/h3&gt;" style="ellipse;whiteSpace=wrap;html=1;" vertex="1" parent="1">
          <mxGeometry x="450" y="360" width="120" height="80" as="geometry" />
        </mxCell>
        <mxCell id="4yn7_-6FRRdtRMWmyEBK-12" style="edgeStyle=orthogonalEdgeStyle;rounded=0;orthogonalLoop=1;jettySize=auto;html=1;entryX=0.75;entryY=1;entryDx=0;entryDy=0;" edge="1" parent="1" source="4yn7_-6FRRdtRMWmyEBK-7" target="4yn7_-6FRRdtRMWmyEBK-1">
          <mxGeometry relative="1" as="geometry">
            <Array as="points">
              <mxPoint x="650" y="210" />
              <mxPoint x="483" y="210" />
            </Array>
          </mxGeometry>
        </mxCell>
        <mxCell id="4yn7_-6FRRdtRMWmyEBK-7" value="&lt;h3&gt;VOCs-CO2&lt;/h3&gt;" style="ellipse;whiteSpace=wrap;html=1;" vertex="1" parent="1">
          <mxGeometry x="590" y="360" width="120" height="80" as="geometry" />
        </mxCell>
        <mxCell id="4yn7_-6FRRdtRMWmyEBK-10" style="edgeStyle=orthogonalEdgeStyle;rounded=0;orthogonalLoop=1;jettySize=auto;html=1;entryX=0.067;entryY=1;entryDx=0;entryDy=0;entryPerimeter=0;" edge="1" parent="1" source="4yn7_-6FRRdtRMWmyEBK-5" target="4yn7_-6FRRdtRMWmyEBK-1">
          <mxGeometry relative="1" as="geometry">
            <Array as="points">
              <mxPoint x="250" y="220" />
              <mxPoint x="380" y="220" />
            </Array>
          </mxGeometry>
        </mxCell>
      </root>
    </mxGraphModel>
  </diagram>
</mxfile>
